# xmcd
#
# Track frame offsets:
#	150
#	14851
#	24579
#	39040
#	53879
#	65221
#	76369
#	91380
#	105642
#	124690
#	137850
#	151761
#	167477
#	178273
#	193129
#
# Disc length: 2726 seconds
#
# Revision: 0
# Processed by: cddbd v1.5.2PL0 Copyright (c) Steve Scherf et al.
# Submitted via: EZCDAudioConverter 2.1.7.1
#
DISCID=ca0aa40f
DTITLE=Various Artist - Imaginations
DYEAR=1900
DGENRE=
TTITLE0=Revolver - Imaginations
TTITLE1=The Damned - Theta
TTITLE2=Shakane - I'm Coming Home
TTITLE3=Uzi and The Styles - Morning Train
TTITLE4=Boots - You Better Run
TTITLE5=Information - Oh Strange Man
TTITLE6=Shakane - You Go Your Way
TTITLE7=Taiconderoga - Whitchi Tai To
TTITLE8=Taiconderoga - Speakin' My Mind
TTITLE9=Shakane - Dance Of The Dead
TTITLE10=Derek Paul - Drugtaker
TTITLE11=Rubber Band - Moonwalker 
TTITLE12=Jelly - Chicago Calling
TTITLE13=Funky Bottom Congregation - Things About Yourself
TTITLE14=The Damned - Morning Bird
EXTD=
EXTT0=
EXTT1=
EXTT2=
EXTT3=
EXTT4=
EXTT5=
EXTT6=
EXTT7=
EXTT8=
EXTT9=
EXTT10=
EXTT11=
EXTT12=
EXTT13=
EXTT14=
PLAYORDER=
